<svg width="21" height="18" viewBox="0 0 21 18" fill="none" xmlns="http://www.w3.org/2000/svg">
<path d="M19.1598 2.00004C18.0998 0.937251 16.6946 0.288583 15.1981 0.171213C13.7017 0.0538432 12.2126 0.475509 10.9998 1.36004C9.72744 0.413681 8.14378 -0.0154454 6.56771 0.159081C4.99164 0.333607 3.54023 1.09882 2.50576 2.30063C1.47129 3.50244 0.93061 5.05156 0.992588 6.63606C1.05457 8.22055 1.71461 9.72271 2.83979 10.84L9.04979 17.06C9.56981 17.5718 10.2702 17.8587 10.9998 17.8587C11.7294 17.8587 12.4298 17.5718 12.9498 17.06L19.1598 10.84C20.3274 9.66531 20.9827 8.07632 20.9827 6.42004C20.9827 4.76377 20.3274 3.17478 19.1598 2.00004Z" fill="#F15152"/>
</svg>
