<svg width="22" height="12" viewBox="0 0 22 12" fill="none" xmlns="http://www.w3.org/2000/svg">
<path d="M11.5901 0.41003L11.5897 0.409606C11.4339 0.254708 11.2231 0.167764 11.0034 0.167764C10.7836 0.167764 10.5729 0.254708 10.417 0.409606L10.4167 0.409953L0.416679 10.41L0.41633 10.4096L0.408027 10.4193C0.271778 10.5784 0.200582 10.7831 0.208667 10.9924C0.216752 11.2017 0.303521 11.4002 0.451637 11.5483C0.599753 11.6965 0.798305 11.7832 1.00761 11.7913C1.21692 11.7994 1.42158 11.7282 1.58068 11.592L1.581 11.5923L1.59002 11.5833L11 2.17334L20.41 11.5899L20.4096 11.5903L20.4194 11.5986C20.5785 11.7349 20.7831 11.8061 20.9924 11.798C21.2017 11.7899 21.4003 11.7031 21.5484 11.555C21.6965 11.4069 21.7833 11.2083 21.7914 10.999C21.7995 10.7897 21.7283 10.5851 21.592 10.426L21.5924 10.4257L21.5834 10.4167L11.5901 0.41003Z" fill="white" stroke="white" strokeWidth="0.33"/>
</svg>
